<svg xmlns="http://www.w3.org/2000/svg" xmlns:xlink="http://www.w3.org/1999/xlink" width="500" zoomAndPan="magnify" viewBox="0 0 375 374.999991" height="500" preserveAspectRatio="xMidYMid meet" version="1.0"><defs><clipPath id="f1a47cdc08"><path d="M 197 78 L 289 78 L 289 298.546875 L 197 298.546875 Z M 197 78 " clip-rule="nonzero"/></clipPath></defs><path fill="#b5b7bb" d="M 169.171875 76.660156 C 158.367188 76.660156 159.164062 91.582031 159.164062 91.582031 L 159.164062 154.101562 C 159.164062 154.101562 159.34375 160.757812 149.1875 160.757812 C 141.003906 160.757812 141.210938 153.625 141.210938 153.625 L 141.210938 91.90625 C 141.210938 91.90625 141.210938 78.882812 133.582031 78.882812 C 125.957031 78.882812 124.683594 91.582031 124.683594 91.582031 L 124.683594 152.917969 C 124.683594 152.917969 124.683594 159.265625 115.792969 159.265625 C 109.289062 159.265625 104.910156 154.878906 105.304688 151.003906 L 105.304688 90.960938 C 105.304688 90.960938 104.039062 79.828125 97.359375 79.828125 C 90.683594 79.828125 88.785156 90.003906 88.785156 90.003906 C 88.785156 90.003906 84.011719 139.25 86.558594 167.863281 C 89.097656 196.460938 118.136719 201.859375 118.136719 201.859375 L 118.136719 280.664062 C 118.136719 280.664062 118.136719 297.179688 132.117188 297.179688 C 146.097656 297.179688 145.777344 280.339844 145.777344 280.339844 L 145.777344 202.183594 C 170.246094 193.601562 178.890625 178.152344 178.890625 169.574219 C 178.890625 160.996094 178.074219 91.273438 178.074219 91.273438 C 178.074219 91.273438 177.753906 76.660156 169.171875 76.660156 " fill-opacity="1" fill-rule="nonzero"/><g clip-path="url(#f1a47cdc08)"><path fill="#b5b7bb" d="M 243.40625 78.449219 C 218.242188 78.449219 197.84375 106.152344 197.84375 140.324219 C 197.84375 167.484375 210.820312 190.308594 228.757812 198.621094 L 228.757812 285.898438 C 228.757812 285.898438 231.390625 298.777344 245.4375 298.777344 C 259.480469 298.777344 258.015625 284.441406 258.015625 284.441406 L 258.015625 198.636719 C 275.972656 190.339844 288.972656 167.507812 288.972656 140.324219 C 288.972656 106.152344 268.566406 78.449219 243.40625 78.449219 " fill-opacity="1" fill-rule="nonzero"/></g></svg>