<svg xmlns="http://www.w3.org/2000/svg" xmlns:xlink="http://www.w3.org/1999/xlink" width="500" zoomAndPan="magnify" viewBox="0 0 375 374.999991" height="500" preserveAspectRatio="xMidYMid meet" version="1.0"><defs><clipPath id="598fc93efc"><path d="M 77.632812 148 L 298.132812 148 L 298.132812 297.800781 L 77.632812 297.800781 Z M 77.632812 148 " clip-rule="nonzero"/></clipPath><clipPath id="c1dfb4720f"><path d="M 126 77.300781 L 138 77.300781 L 138 94 L 126 94 Z M 126 77.300781 " clip-rule="nonzero"/></clipPath><clipPath id="3f83b8b8a9"><path d="M 237 77.300781 L 250 77.300781 L 250 94 L 237 94 Z M 237 77.300781 " clip-rule="nonzero"/></clipPath><clipPath id="aaff9479af"><path d="M 77.632812 93 L 298.132812 93 L 298.132812 137 L 77.632812 137 Z M 77.632812 93 " clip-rule="nonzero"/></clipPath></defs><g clip-path="url(#598fc93efc)"><path fill="#b5b7bb" d="M 77.632812 268.695312 C 77.632812 269.644531 77.679688 270.59375 77.773438 271.539062 C 77.867188 272.484375 78.003906 273.421875 78.191406 274.351562 C 78.375 275.285156 78.605469 276.203125 78.882812 277.113281 C 79.160156 278.023438 79.480469 278.914062 79.84375 279.792969 C 80.207031 280.667969 80.613281 281.527344 81.058594 282.363281 C 81.507812 283.203125 81.996094 284.015625 82.523438 284.804688 C 83.050781 285.59375 83.613281 286.355469 84.21875 287.089844 C 84.820312 287.824219 85.457031 288.527344 86.128906 289.199219 C 86.800781 289.871094 87.503906 290.507812 88.238281 291.109375 C 88.972656 291.710938 89.734375 292.277344 90.523438 292.804688 C 91.3125 293.332031 92.125 293.820312 92.964844 294.269531 C 93.800781 294.714844 94.65625 295.121094 95.535156 295.484375 C 96.414062 295.847656 97.304688 296.167969 98.214844 296.445312 C 99.125 296.71875 100.042969 296.949219 100.972656 297.136719 C 101.90625 297.320312 102.84375 297.460938 103.789062 297.554688 C 104.734375 297.648438 105.679688 297.695312 106.632812 297.695312 L 269.027344 297.695312 C 269.976562 297.695312 270.925781 297.648438 271.871094 297.554688 C 272.8125 297.460938 273.753906 297.320312 274.683594 297.136719 C 275.617188 296.949219 276.535156 296.71875 277.445312 296.445312 C 278.351562 296.167969 279.246094 295.847656 280.125 295.484375 C 281 295.121094 281.859375 294.714844 282.695312 294.269531 C 283.53125 293.820312 284.347656 293.332031 285.136719 292.804688 C 285.925781 292.277344 286.6875 291.710938 287.421875 291.109375 C 288.15625 290.507812 288.859375 289.871094 289.53125 289.199219 C 290.203125 288.527344 290.839844 287.824219 291.441406 287.089844 C 292.042969 286.355469 292.609375 285.59375 293.136719 284.804688 C 293.664062 284.015625 294.152344 283.203125 294.597656 282.363281 C 295.046875 281.527344 295.453125 280.667969 295.816406 279.792969 C 296.179688 278.914062 296.5 278.023438 296.773438 277.113281 C 297.050781 276.203125 297.28125 275.285156 297.46875 274.351562 C 297.652344 273.421875 297.792969 272.484375 297.886719 271.539062 C 297.980469 270.59375 298.027344 269.644531 298.027344 268.695312 L 298.027344 148.5625 L 77.632812 148.5625 Z M 77.632812 268.695312 " fill-opacity="1" fill-rule="nonzero"/></g><g clip-path="url(#c1dfb4720f)"><path fill="#b5b7bb" d="M 137.71875 83.101562 C 137.714844 82.722656 137.671875 82.351562 137.59375 81.980469 C 137.515625 81.613281 137.402344 81.253906 137.253906 80.90625 C 137.105469 80.558594 136.925781 80.230469 136.710938 79.917969 C 136.5 79.605469 136.257812 79.320312 135.988281 79.054688 C 135.722656 78.789062 135.429688 78.554688 135.113281 78.34375 C 134.800781 78.136719 134.46875 77.960938 134.117188 77.820312 C 133.769531 77.675781 133.410156 77.566406 133.039062 77.496094 C 132.667969 77.421875 132.296875 77.386719 131.917969 77.386719 C 131.542969 77.386719 131.167969 77.421875 130.796875 77.496094 C 130.425781 77.566406 130.066406 77.675781 129.71875 77.820312 C 129.371094 77.960938 129.039062 78.136719 128.722656 78.34375 C 128.40625 78.554688 128.117188 78.789062 127.847656 79.054688 C 127.578125 79.320312 127.335938 79.605469 127.125 79.917969 C 126.914062 80.230469 126.734375 80.558594 126.585938 80.90625 C 126.4375 81.253906 126.324219 81.613281 126.246094 81.980469 C 126.167969 82.351562 126.125 82.722656 126.117188 83.101562 L 126.117188 93.617188 L 137.71875 93.617188 Z M 137.71875 83.101562 " fill-opacity="1" fill-rule="nonzero"/></g><path fill="#b5b7bb" d="M 193.628906 84.878906 C 193.625 84.5 193.582031 84.128906 193.503906 83.757812 C 193.425781 83.390625 193.3125 83.03125 193.164062 82.683594 C 193.015625 82.335938 192.835938 82.007812 192.625 81.695312 C 192.410156 81.382812 192.171875 81.09375 191.902344 80.832031 C 191.632812 80.566406 191.339844 80.328125 191.027344 80.121094 C 190.710938 79.914062 190.378906 79.738281 190.03125 79.59375 C 189.679688 79.449219 189.320312 79.34375 188.949219 79.269531 C 188.582031 79.195312 188.207031 79.160156 187.828125 79.160156 C 187.453125 79.160156 187.078125 79.195312 186.707031 79.269531 C 186.335938 79.34375 185.976562 79.449219 185.628906 79.59375 C 185.277344 79.738281 184.945312 79.914062 184.632812 80.121094 C 184.316406 80.328125 184.023438 80.566406 183.757812 80.832031 C 183.488281 81.097656 183.246094 81.382812 183.035156 81.695312 C 182.824219 82.007812 182.640625 82.335938 182.492188 82.683594 C 182.347656 83.03125 182.234375 83.390625 182.15625 83.757812 C 182.078125 84.128906 182.035156 84.503906 182.03125 84.878906 L 182.03125 93.617188 L 193.628906 93.617188 Z M 193.628906 84.878906 " fill-opacity="1" fill-rule="nonzero"/><g clip-path="url(#3f83b8b8a9)"><path fill="#b5b7bb" d="M 249.539062 83.101562 C 249.535156 82.722656 249.492188 82.351562 249.414062 81.980469 C 249.335938 81.613281 249.222656 81.253906 249.074219 80.90625 C 248.925781 80.558594 248.746094 80.230469 248.53125 79.917969 C 248.320312 79.605469 248.078125 79.320312 247.8125 79.054688 C 247.542969 78.789062 247.25 78.554688 246.9375 78.34375 C 246.621094 78.136719 246.289062 77.960938 245.941406 77.820312 C 245.589844 77.675781 245.230469 77.566406 244.859375 77.496094 C 244.492188 77.421875 244.117188 77.386719 243.738281 77.386719 C 243.363281 77.386719 242.988281 77.421875 242.617188 77.496094 C 242.25 77.566406 241.886719 77.675781 241.539062 77.820312 C 241.191406 77.960938 240.859375 78.136719 240.542969 78.34375 C 240.230469 78.554688 239.9375 78.789062 239.667969 79.054688 C 239.398438 79.320312 239.160156 79.605469 238.945312 79.917969 C 238.734375 80.230469 238.554688 80.558594 238.40625 80.90625 C 238.257812 81.253906 238.144531 81.613281 238.066406 81.980469 C 237.988281 82.351562 237.945312 82.722656 237.941406 83.101562 L 237.941406 93.617188 L 249.539062 93.617188 Z M 249.539062 83.101562 " fill-opacity="1" fill-rule="nonzero"/></g><g clip-path="url(#aaff9479af)"><path fill="#b5b7bb" d="M 269.027344 93.617188 L 249.539062 93.617188 L 249.539062 115.734375 C 249.535156 116.113281 249.492188 116.484375 249.414062 116.855469 C 249.335938 117.222656 249.222656 117.582031 249.074219 117.929688 C 248.925781 118.277344 248.746094 118.605469 248.535156 118.917969 C 248.324219 119.230469 248.082031 119.519531 247.8125 119.785156 C 247.542969 120.050781 247.253906 120.285156 246.9375 120.496094 C 246.621094 120.703125 246.289062 120.878906 245.941406 121.023438 C 245.589844 121.164062 245.230469 121.273438 244.863281 121.347656 C 244.492188 121.417969 244.117188 121.457031 243.738281 121.457031 C 243.363281 121.457031 242.988281 121.417969 242.617188 121.347656 C 242.246094 121.273438 241.886719 121.164062 241.539062 121.019531 C 241.1875 120.878906 240.855469 120.703125 240.542969 120.496094 C 240.226562 120.285156 239.933594 120.050781 239.667969 119.785156 C 239.398438 119.519531 239.15625 119.230469 238.945312 118.917969 C 238.730469 118.605469 238.550781 118.277344 238.402344 117.929688 C 238.253906 117.582031 238.144531 117.222656 238.066406 116.855469 C 237.988281 116.484375 237.945312 116.113281 237.941406 115.734375 L 237.941406 93.617188 L 193.628906 93.617188 L 193.628906 117.511719 C 193.625 117.890625 193.582031 118.265625 193.503906 118.632812 C 193.425781 119.003906 193.3125 119.359375 193.164062 119.707031 C 193.015625 120.054688 192.835938 120.382812 192.625 120.695312 C 192.410156 121.007812 192.171875 121.296875 191.902344 121.5625 C 191.632812 121.828125 191.339844 122.0625 191.027344 122.269531 C 190.710938 122.480469 190.378906 122.65625 190.03125 122.796875 C 189.679688 122.941406 189.320312 123.050781 188.949219 123.121094 C 188.582031 123.195312 188.207031 123.230469 187.828125 123.230469 C 187.453125 123.230469 187.078125 123.195312 186.707031 123.121094 C 186.335938 123.050781 185.976562 122.941406 185.628906 122.796875 C 185.277344 122.65625 184.945312 122.480469 184.632812 122.269531 C 184.316406 122.0625 184.023438 121.828125 183.757812 121.5625 C 183.488281 121.296875 183.246094 121.007812 183.035156 120.695312 C 182.824219 120.382812 182.640625 120.054688 182.492188 119.707031 C 182.347656 119.359375 182.234375 119.003906 182.15625 118.632812 C 182.078125 118.261719 182.035156 117.890625 182.03125 117.511719 L 182.03125 93.617188 L 137.71875 93.617188 L 137.71875 115.734375 C 137.71875 116.117188 137.679688 116.492188 137.605469 116.867188 C 137.53125 117.238281 137.421875 117.601562 137.277344 117.953125 C 137.132812 118.304688 136.953125 118.640625 136.742188 118.957031 C 136.53125 119.273438 136.289062 119.566406 136.019531 119.835938 C 135.75 120.105469 135.457031 120.34375 135.140625 120.558594 C 134.824219 120.769531 134.488281 120.945312 134.136719 121.09375 C 133.785156 121.238281 133.421875 121.347656 133.050781 121.421875 C 132.675781 121.496094 132.300781 121.535156 131.917969 121.535156 C 131.539062 121.535156 131.160156 121.496094 130.785156 121.421875 C 130.414062 121.347656 130.050781 121.238281 129.699219 121.09375 C 129.347656 120.945312 129.011719 120.769531 128.695312 120.558594 C 128.378906 120.34375 128.085938 120.105469 127.816406 119.835938 C 127.546875 119.566406 127.308594 119.273438 127.097656 118.957031 C 126.882812 118.640625 126.707031 118.304688 126.558594 117.953125 C 126.414062 117.601562 126.304688 117.238281 126.230469 116.867188 C 126.15625 116.492188 126.117188 116.117188 126.117188 115.734375 L 126.117188 93.617188 L 106.632812 93.617188 C 105.683594 93.617188 104.734375 93.667969 103.789062 93.761719 C 102.84375 93.855469 101.90625 93.996094 100.976562 94.179688 C 100.046875 94.367188 99.125 94.597656 98.21875 94.875 C 97.308594 95.152344 96.417969 95.46875 95.539062 95.835938 C 94.664062 96.199219 93.804688 96.605469 92.96875 97.050781 C 92.132812 97.5 91.316406 97.988281 90.527344 98.515625 C 89.738281 99.042969 88.976562 99.609375 88.242188 100.210938 C 87.511719 100.8125 86.808594 101.449219 86.136719 102.121094 C 85.464844 102.792969 84.828125 103.496094 84.226562 104.230469 C 83.621094 104.964844 83.058594 105.726562 82.53125 106.515625 C 82.003906 107.304688 81.515625 108.117188 81.066406 108.953125 C 80.617188 109.789062 80.210938 110.648438 79.847656 111.523438 C 79.484375 112.402344 79.164062 113.292969 78.886719 114.203125 C 78.613281 115.109375 78.382812 116.03125 78.195312 116.960938 C 78.007812 117.894531 77.867188 118.832031 77.773438 119.777344 C 77.679688 120.71875 77.632812 121.667969 77.632812 122.617188 L 77.632812 136.960938 L 298.027344 136.960938 L 298.027344 122.617188 C 298.023438 121.667969 297.976562 120.71875 297.882812 119.777344 C 297.789062 118.832031 297.648438 117.894531 297.464844 116.960938 C 297.277344 116.03125 297.046875 115.109375 296.769531 114.203125 C 296.492188 113.292969 296.171875 112.402344 295.808594 111.523438 C 295.445312 110.648438 295.039062 109.789062 294.59375 108.953125 C 294.144531 108.117188 293.65625 107.304688 293.128906 106.515625 C 292.601562 105.726562 292.035156 104.964844 291.433594 104.230469 C 290.832031 103.496094 290.195312 102.792969 289.523438 102.121094 C 288.851562 101.449219 288.148438 100.8125 287.414062 100.210938 C 286.679688 99.609375 285.917969 99.042969 285.128906 98.515625 C 284.339844 97.988281 283.527344 97.5 282.691406 97.050781 C 281.851562 96.605469 280.996094 96.199219 280.121094 95.835938 C 279.242188 95.46875 278.347656 95.152344 277.441406 94.875 C 276.53125 94.597656 275.613281 94.367188 274.683594 94.179688 C 273.75 93.996094 272.8125 93.855469 271.867188 93.761719 C 270.921875 93.667969 269.976562 93.617188 269.027344 93.617188 Z M 269.027344 93.617188 " fill-opacity="1" fill-rule="nonzero"/></g></svg>