<svg xmlns="http://www.w3.org/2000/svg" xmlns:xlink="http://www.w3.org/1999/xlink" width="500" zoomAndPan="magnify" viewBox="0 0 375 374.999991" height="500" preserveAspectRatio="xMidYMid meet" version="1.0"><defs><clipPath id="172462912c"><path d="M 73 78 L 301 78 L 301 297.882812 L 73 297.882812 Z M 73 78 " clip-rule="nonzero"/></clipPath></defs><g clip-path="url(#172462912c)"><path fill="#fd5900" d="M 288.632812 192.53125 L 279.328125 192.53125 L 279.328125 287.945312 C 279.289062 288.589844 279.1875 289.222656 279.023438 289.84375 C 278.859375 290.46875 278.636719 291.070312 278.355469 291.652344 C 278.074219 292.230469 277.738281 292.777344 277.351562 293.292969 C 276.960938 293.804688 276.527344 294.277344 276.046875 294.707031 C 275.566406 295.136719 275.046875 295.515625 274.492188 295.84375 C 273.9375 296.171875 273.355469 296.445312 272.75 296.660156 C 272.140625 296.871094 271.519531 297.027344 270.882812 297.121094 C 270.242188 297.210938 269.601562 297.242188 268.957031 297.210938 L 213.992188 297.210938 L 213.992188 232.152344 C 213.992188 231.707031 213.945312 231.265625 213.859375 230.828125 C 213.773438 230.390625 213.644531 229.964844 213.472656 229.550781 C 213.304688 229.140625 213.09375 228.746094 212.84375 228.378906 C 212.597656 228.007812 212.316406 227.664062 212 227.347656 C 211.683594 227.03125 211.34375 226.75 210.972656 226.5 C 210.601562 226.253906 210.210938 226.042969 209.796875 225.875 C 209.382812 225.703125 208.960938 225.574219 208.523438 225.484375 C 208.085938 225.398438 207.644531 225.355469 207.195312 225.355469 L 167.316406 225.355469 C 166.871094 225.355469 166.425781 225.398438 165.988281 225.484375 C 165.550781 225.574219 165.125 225.703125 164.714844 225.871094 C 164.300781 226.042969 163.910156 226.253906 163.539062 226.5 C 163.167969 226.75 162.824219 227.03125 162.511719 227.347656 C 162.195312 227.660156 161.914062 228.003906 161.664062 228.375 C 161.417969 228.746094 161.207031 229.140625 161.039062 229.550781 C 160.867188 229.964844 160.738281 230.390625 160.652344 230.828125 C 160.566406 231.265625 160.519531 231.707031 160.523438 232.152344 L 160.523438 297.207031 L 105.550781 297.207031 C 104.90625 297.238281 104.269531 297.210938 103.632812 297.121094 C 102.996094 297.027344 102.375 296.875 101.769531 296.664062 C 101.164062 296.449219 100.585938 296.179688 100.03125 295.855469 C 99.476562 295.527344 98.960938 295.148438 98.480469 294.722656 C 98.003906 294.292969 97.570312 293.824219 97.183594 293.308594 C 96.796875 292.796875 96.464844 292.25 96.183594 291.671875 C 95.902344 291.09375 95.683594 290.496094 95.519531 289.871094 C 95.359375 289.25 95.257812 288.621094 95.21875 287.976562 L 95.21875 192.53125 L 85.875 192.53125 C 75.515625 192.53125 69.90625 182.78125 76.691406 176.523438 L 178.964844 81.972656 C 179.605469 81.429688 180.285156 80.949219 181.011719 80.527344 C 181.738281 80.109375 182.492188 79.753906 183.28125 79.464844 C 184.066406 79.179688 184.875 78.960938 185.699219 78.816406 C 186.523438 78.671875 187.355469 78.597656 188.195312 78.601562 C 189.035156 78.601562 189.863281 78.679688 190.691406 78.828125 C 191.515625 78.976562 192.320312 79.195312 193.105469 79.484375 C 193.894531 79.777344 194.648438 80.132812 195.371094 80.558594 C 196.09375 80.980469 196.773438 81.464844 197.414062 82.007812 C 230.894531 113.523438 264.390625 145.039062 297.902344 176.554688 C 304.5625 182.871094 298.953125 192.53125 288.632812 192.53125 Z M 288.632812 192.53125 " fill-opacity="1" fill-rule="nonzero"/></g></svg>