<svg xmlns="http://www.w3.org/2000/svg" xmlns:xlink="http://www.w3.org/1999/xlink" width="500" zoomAndPan="magnify" viewBox="0 0 375 374.999991" height="500" preserveAspectRatio="xMidYMid meet" version="1.0"><defs><clipPath id="6bb64d9a04"><path d="M 104.910156 77.382812 L 269.910156 77.382812 L 269.910156 297.882812 L 104.910156 297.882812 Z M 104.910156 77.382812 " clip-rule="nonzero"/></clipPath></defs><g clip-path="url(#6bb64d9a04)"><path fill="#fd5900" d="M 187.5 77.382812 C 141.953125 77.382812 104.914062 114.421875 104.914062 159.96875 C 104.914062 217.214844 179.460938 292.421875 182.625 295.601562 C 183.976562 296.9375 185.738281 297.613281 187.5 297.613281 C 189.261719 297.613281 191.023438 296.9375 192.371094 295.601562 C 195.539062 292.421875 270.085938 217.214844 270.085938 159.96875 C 270.085938 114.421875 233.046875 77.382812 187.5 77.382812 Z M 187.5 201.261719 C 164.734375 201.261719 146.207031 182.734375 146.207031 159.96875 C 146.207031 137.203125 164.734375 118.675781 187.5 118.675781 C 210.265625 118.675781 228.792969 137.203125 228.792969 159.96875 C 228.792969 182.734375 210.265625 201.261719 187.5 201.261719 Z M 187.5 201.261719 " fill-opacity="1" fill-rule="nonzero"/></g></svg>