<svg xmlns="http://www.w3.org/2000/svg" xmlns:xlink="http://www.w3.org/1999/xlink" width="500" zoomAndPan="magnify" viewBox="0 0 375 374.999991" height="500" preserveAspectRatio="xMidYMid meet" version="1.0"><defs><clipPath id="eb1800056e"><path d="M 30.328125 30.328125 L 344.578125 30.328125 L 344.578125 344.578125 L 30.328125 344.578125 Z M 30.328125 30.328125 " clip-rule="nonzero"/></clipPath></defs><g clip-path="url(#eb1800056e)"><path fill="#000000" d="M 187.453125 30.328125 C 184.882812 30.328125 182.3125 30.390625 179.742188 30.519531 C 177.175781 30.644531 174.613281 30.832031 172.054688 31.085938 C 169.492188 31.335938 166.941406 31.652344 164.398438 32.03125 C 161.855469 32.40625 159.324219 32.847656 156.800781 33.347656 C 154.277344 33.847656 151.769531 34.414062 149.277344 35.039062 C 146.78125 35.664062 144.304688 36.347656 141.84375 37.09375 C 139.382812 37.839844 136.941406 38.648438 134.519531 39.511719 C 132.097656 40.378906 129.699219 41.304688 127.324219 42.289062 C 124.949219 43.273438 122.597656 44.316406 120.273438 45.414062 C 117.949219 46.515625 115.652344 47.667969 113.386719 48.882812 C 111.117188 50.09375 108.882812 51.359375 106.675781 52.683594 C 104.46875 54.003906 102.296875 55.378906 100.160156 56.808594 C 98.023438 58.238281 95.921875 59.71875 93.855469 61.25 C 91.789062 62.78125 89.761719 64.363281 87.773438 65.996094 C 85.785156 67.625 83.839844 69.304688 81.933594 71.03125 C 80.03125 72.757812 78.167969 74.53125 76.351562 76.347656 C 74.53125 78.167969 72.757812 80.03125 71.03125 81.933594 C 69.304688 83.839844 67.625 85.785156 65.996094 87.773438 C 64.363281 89.761719 62.78125 91.789062 61.25 93.855469 C 59.71875 95.917969 58.238281 98.023438 56.808594 100.160156 C 55.378906 102.296875 54.003906 104.46875 52.683594 106.675781 C 51.359375 108.882812 50.09375 111.117188 48.882812 113.386719 C 47.667969 115.652344 46.515625 117.949219 45.414062 120.273438 C 44.316406 122.597656 43.273438 124.949219 42.289062 127.324219 C 41.304688 129.699219 40.378906 132.097656 39.515625 134.519531 C 38.648438 136.941406 37.839844 139.382812 37.09375 141.84375 C 36.347656 144.304688 35.664062 146.78125 35.039062 149.277344 C 34.414062 151.769531 33.847656 154.277344 33.347656 156.800781 C 32.847656 159.320312 32.40625 161.855469 32.03125 164.398438 C 31.652344 166.941406 31.335938 169.492188 31.085938 172.054688 C 30.832031 174.613281 30.644531 177.175781 30.519531 179.742188 C 30.390625 182.3125 30.328125 184.882812 30.328125 187.453125 C 30.328125 190.023438 30.390625 192.59375 30.519531 195.164062 C 30.644531 197.730469 30.832031 200.296875 31.085938 202.855469 C 31.335938 205.414062 31.652344 207.964844 32.03125 210.507812 C 32.40625 213.050781 32.847656 215.585938 33.347656 218.105469 C 33.847656 220.628906 34.414062 223.136719 35.039062 225.632812 C 35.664062 228.125 36.347656 230.605469 37.09375 233.066406 C 37.839844 235.523438 38.648438 237.964844 39.515625 240.386719 C 40.378906 242.808594 41.304688 245.207031 42.289062 247.582031 C 43.273438 249.957031 44.316406 252.308594 45.414062 254.632812 C 46.515625 256.957031 47.667969 259.253906 48.882812 261.523438 C 50.09375 263.789062 51.359375 266.027344 52.683594 268.230469 C 54.003906 270.4375 55.378906 272.609375 56.808594 274.746094 C 58.238281 276.886719 59.71875 278.988281 61.25 281.054688 C 62.78125 283.117188 64.363281 285.144531 65.996094 287.132812 C 67.625 289.121094 69.304688 291.066406 71.03125 292.972656 C 72.757812 294.878906 74.53125 296.738281 76.351562 298.558594 C 78.167969 300.375 80.03125 302.148438 81.933594 303.875 C 83.839844 305.601562 85.785156 307.28125 87.773438 308.914062 C 89.761719 310.542969 91.789062 312.125 93.855469 313.65625 C 95.921875 315.1875 98.023438 316.667969 100.160156 318.097656 C 102.296875 319.527344 104.46875 320.902344 106.675781 322.222656 C 108.882812 323.546875 111.117188 324.8125 113.386719 326.027344 C 115.652344 327.238281 117.949219 328.394531 120.273438 329.492188 C 122.597656 330.59375 124.949219 331.632812 127.324219 332.617188 C 129.699219 333.601562 132.097656 334.527344 134.519531 335.394531 C 136.941406 336.261719 139.382812 337.066406 141.84375 337.8125 C 144.304688 338.558594 146.78125 339.246094 149.277344 339.871094 C 151.769531 340.496094 154.277344 341.058594 156.800781 341.558594 C 159.320312 342.0625 161.855469 342.5 164.398438 342.878906 C 166.941406 343.253906 169.492188 343.570312 172.054688 343.820312 C 174.613281 344.074219 177.175781 344.261719 179.742188 344.390625 C 182.3125 344.515625 184.882812 344.578125 187.453125 344.578125 C 190.023438 344.578125 192.59375 344.515625 195.164062 344.390625 C 197.730469 344.261719 200.296875 344.074219 202.855469 343.820312 C 205.414062 343.570312 207.964844 343.253906 210.507812 342.878906 C 213.050781 342.5 215.585938 342.0625 218.105469 341.558594 C 220.628906 341.058594 223.136719 340.496094 225.632812 339.871094 C 228.125 339.246094 230.605469 338.558594 233.066406 337.8125 C 235.527344 337.066406 237.964844 336.261719 240.386719 335.394531 C 242.808594 334.527344 245.207031 333.601562 247.582031 332.617188 C 249.957031 331.632812 252.308594 330.59375 254.632812 329.492188 C 256.957031 328.394531 259.253906 327.238281 261.523438 326.027344 C 263.789062 324.8125 266.027344 323.546875 268.230469 322.222656 C 270.4375 320.902344 272.609375 319.527344 274.746094 318.097656 C 276.886719 316.667969 278.988281 315.1875 281.054688 313.65625 C 283.117188 312.125 285.144531 310.542969 287.132812 308.914062 C 289.121094 307.28125 291.066406 305.601562 292.972656 303.875 C 294.878906 302.148438 296.738281 300.375 298.558594 298.558594 C 300.375 296.738281 302.148438 294.878906 303.875 292.972656 C 305.601562 291.066406 307.28125 289.121094 308.914062 287.132812 C 310.542969 285.144531 312.125 283.117188 313.65625 281.054688 C 315.191406 278.988281 316.667969 276.886719 318.097656 274.746094 C 319.527344 272.609375 320.902344 270.4375 322.222656 268.230469 C 323.546875 266.027344 324.8125 263.789062 326.027344 261.523438 C 327.238281 259.253906 328.394531 256.957031 329.492188 254.632812 C 330.59375 252.308594 331.632812 249.957031 332.617188 247.582031 C 333.601562 245.207031 334.527344 242.808594 335.394531 240.386719 C 336.261719 237.964844 337.066406 235.523438 337.8125 233.066406 C 338.558594 230.605469 339.246094 228.125 339.871094 225.632812 C 340.496094 223.136719 341.058594 220.628906 341.558594 218.105469 C 342.0625 215.585938 342.5 213.050781 342.878906 210.507812 C 343.253906 207.964844 343.570312 205.414062 343.820312 202.855469 C 344.074219 200.296875 344.261719 197.730469 344.390625 195.164062 C 344.515625 192.59375 344.578125 190.023438 344.578125 187.453125 C 344.574219 184.882812 344.511719 182.3125 344.382812 179.746094 C 344.253906 177.179688 344.058594 174.617188 343.804688 172.058594 C 343.550781 169.5 343.234375 166.949219 342.855469 164.40625 C 342.476562 161.863281 342.035156 159.332031 341.53125 156.8125 C 341.027344 154.292969 340.460938 151.785156 339.835938 149.292969 C 339.207031 146.796875 338.519531 144.324219 337.773438 141.863281 C 337.023438 139.402344 336.214844 136.964844 335.347656 134.542969 C 334.480469 132.125 333.554688 129.726562 332.570312 127.351562 C 331.585938 124.976562 330.542969 122.628906 329.441406 120.304688 C 328.339844 117.984375 327.183594 115.6875 325.972656 113.421875 C 324.757812 111.15625 323.492188 108.917969 322.167969 106.714844 C 320.847656 104.511719 319.472656 102.339844 318.042969 100.203125 C 316.613281 98.066406 315.132812 95.964844 313.601562 93.898438 C 312.070312 91.835938 310.488281 89.808594 308.859375 87.824219 C 307.226562 85.835938 305.546875 83.890625 303.820312 81.984375 C 302.09375 80.082031 300.324219 78.21875 298.503906 76.402344 C 296.6875 74.585938 294.824219 72.8125 292.921875 71.085938 C 291.015625 69.359375 289.070312 67.679688 287.085938 66.050781 C 285.097656 64.417969 283.070312 62.835938 281.007812 61.304688 C 278.941406 59.773438 276.84375 58.292969 274.703125 56.863281 C 272.566406 55.4375 270.398438 54.058594 268.191406 52.738281 C 265.988281 51.414062 263.753906 50.148438 261.484375 48.933594 C 259.21875 47.722656 256.925781 46.566406 254.601562 45.464844 C 252.277344 44.367188 249.929688 43.324219 247.554688 42.335938 C 245.179688 41.351562 242.785156 40.425781 240.363281 39.558594 C 237.945312 38.691406 235.503906 37.882812 233.042969 37.136719 C 230.585938 36.386719 228.109375 35.699219 225.617188 35.074219 C 223.121094 34.445312 220.617188 33.882812 218.09375 33.378906 C 215.574219 32.875 213.042969 32.433594 210.5 32.054688 C 207.957031 31.671875 205.40625 31.355469 202.847656 31.101562 C 200.292969 30.847656 197.726562 30.65625 195.160156 30.527344 C 192.59375 30.398438 190.023438 30.332031 187.453125 30.328125 Z M 187.453125 320.40625 C 185.277344 320.40625 183.101562 320.351562 180.929688 320.246094 C 178.757812 320.140625 176.585938 319.980469 174.421875 319.765625 C 172.257812 319.550781 170.097656 319.285156 167.945312 318.964844 C 165.792969 318.648438 163.648438 318.277344 161.515625 317.851562 C 159.382812 317.425781 157.257812 316.949219 155.148438 316.421875 C 153.039062 315.890625 150.941406 315.3125 148.859375 314.679688 C 146.777344 314.050781 144.710938 313.367188 142.664062 312.632812 C 140.613281 311.902344 138.585938 311.117188 136.574219 310.285156 C 134.566406 309.453125 132.578125 308.570312 130.609375 307.640625 C 128.640625 306.710938 126.699219 305.734375 124.78125 304.707031 C 122.863281 303.679688 120.96875 302.609375 119.101562 301.492188 C 117.238281 300.371094 115.398438 299.207031 113.589844 298 C 111.78125 296.789062 110.003906 295.539062 108.253906 294.242188 C 106.507812 292.945312 104.792969 291.605469 103.109375 290.226562 C 101.429688 288.847656 99.78125 287.425781 98.167969 285.964844 C 96.554688 284.503906 94.980469 283.003906 93.441406 281.464844 C 91.902344 279.925781 90.402344 278.351562 88.941406 276.738281 C 87.480469 275.125 86.0625 273.480469 84.679688 271.796875 C 83.300781 270.117188 81.960938 268.402344 80.664062 266.652344 C 79.371094 264.90625 78.117188 263.125 76.910156 261.316406 C 75.699219 259.507812 74.535156 257.671875 73.417969 255.804688 C 72.296875 253.9375 71.226562 252.046875 70.199219 250.125 C 69.175781 248.207031 68.195312 246.265625 67.265625 244.296875 C 66.335938 242.332031 65.453125 240.34375 64.621094 238.332031 C 63.789062 236.320312 63.007812 234.292969 62.273438 232.242188 C 61.539062 230.195312 60.859375 228.128906 60.226562 226.046875 C 59.59375 223.964844 59.015625 221.867188 58.484375 219.757812 C 57.957031 217.648438 57.480469 215.523438 57.054688 213.390625 C 56.632812 211.257812 56.261719 209.113281 55.941406 206.960938 C 55.621094 204.808594 55.355469 202.652344 55.140625 200.484375 C 54.929688 198.320312 54.769531 196.152344 54.660156 193.976562 C 54.554688 191.804688 54.5 189.628906 54.5 187.453125 C 54.5 185.277344 54.554688 183.101562 54.660156 180.929688 C 54.769531 178.757812 54.929688 176.585938 55.140625 174.421875 C 55.355469 172.257812 55.621094 170.097656 55.941406 167.945312 C 56.261719 165.792969 56.632812 163.648438 57.054688 161.515625 C 57.480469 159.382812 57.957031 157.257812 58.484375 155.148438 C 59.015625 153.039062 59.59375 150.941406 60.226562 148.859375 C 60.859375 146.777344 61.539062 144.710938 62.273438 142.664062 C 63.007812 140.613281 63.789062 138.585938 64.621094 136.574219 C 65.453125 134.566406 66.335938 132.578125 67.265625 130.609375 C 68.195312 128.640625 69.175781 126.699219 70.199219 124.78125 C 71.226562 122.863281 72.296875 120.96875 73.417969 119.101562 C 74.535156 117.238281 75.699219 115.398438 76.910156 113.589844 C 78.117188 111.78125 79.371094 110.003906 80.664062 108.253906 C 81.960938 106.507812 83.300781 104.792969 84.679688 103.109375 C 86.0625 101.429688 87.480469 99.78125 88.941406 98.167969 C 90.402344 96.554688 91.902344 94.980469 93.441406 93.441406 C 94.980469 91.902344 96.554688 90.402344 98.167969 88.941406 C 99.78125 87.480469 101.429688 86.0625 103.109375 84.679688 C 104.792969 83.300781 106.507812 81.960938 108.253906 80.664062 C 110.003906 79.371094 111.78125 78.117188 113.589844 76.910156 C 115.398438 75.699219 117.238281 74.535156 119.101562 73.417969 C 120.96875 72.296875 122.863281 71.226562 124.78125 70.199219 C 126.699219 69.175781 128.640625 68.195312 130.609375 67.265625 C 132.578125 66.335938 134.566406 65.453125 136.574219 64.621094 C 138.585938 63.789062 140.613281 63.007812 142.664062 62.273438 C 144.710938 61.539062 146.777344 60.859375 148.859375 60.226562 C 150.941406 59.59375 153.039062 59.015625 155.148438 58.484375 C 157.257812 57.957031 159.382812 57.480469 161.515625 57.054688 C 163.648438 56.632812 165.792969 56.261719 167.945312 55.941406 C 170.097656 55.621094 172.257812 55.355469 174.421875 55.140625 C 176.585938 54.929688 178.757812 54.769531 180.929688 54.660156 C 183.101562 54.554688 185.277344 54.5 187.453125 54.5 C 189.628906 54.5 191.804688 54.554688 193.976562 54.660156 C 196.152344 54.769531 198.320312 54.929688 200.484375 55.140625 C 202.652344 55.355469 204.808594 55.621094 206.960938 55.941406 C 209.113281 56.261719 211.257812 56.632812 213.390625 57.054688 C 215.527344 57.480469 217.648438 57.957031 219.757812 58.484375 C 221.867188 59.015625 223.964844 59.59375 226.046875 60.226562 C 228.128906 60.859375 230.195312 61.539062 232.242188 62.273438 C 234.292969 63.007812 236.320312 63.789062 238.332031 64.621094 C 240.34375 65.453125 242.332031 66.335938 244.296875 67.265625 C 246.265625 68.195312 248.207031 69.175781 250.125 70.199219 C 252.046875 71.226562 253.9375 72.296875 255.804688 73.417969 C 257.671875 74.535156 259.507812 75.699219 261.316406 76.910156 C 263.128906 78.117188 264.90625 79.371094 266.652344 80.664062 C 268.402344 81.960938 270.117188 83.300781 271.796875 84.679688 C 273.480469 86.0625 275.125 87.480469 276.738281 88.941406 C 278.351562 90.402344 279.925781 91.902344 281.464844 93.441406 C 283.003906 94.980469 284.503906 96.554688 285.964844 98.167969 C 287.425781 99.78125 288.847656 101.429688 290.226562 103.109375 C 291.605469 104.792969 292.945312 106.507812 294.242188 108.253906 C 295.539062 110.003906 296.789062 111.78125 298 113.589844 C 299.207031 115.398438 300.371094 117.238281 301.492188 119.101562 C 302.609375 120.96875 303.679688 122.863281 304.707031 124.78125 C 305.734375 126.699219 306.710938 128.640625 307.640625 130.609375 C 308.570312 132.578125 309.453125 134.566406 310.285156 136.574219 C 311.117188 138.585938 311.902344 140.613281 312.632812 142.664062 C 313.367188 144.710938 314.050781 146.777344 314.679688 148.859375 C 315.3125 150.941406 315.890625 153.039062 316.421875 155.148438 C 316.949219 157.257812 317.425781 159.382812 317.851562 161.515625 C 318.277344 163.648438 318.648438 165.792969 318.964844 167.945312 C 319.285156 170.097656 319.550781 172.257812 319.765625 174.421875 C 319.980469 176.585938 320.140625 178.757812 320.246094 180.929688 C 320.351562 183.101562 320.40625 185.277344 320.40625 187.453125 C 320.402344 189.628906 320.347656 191.800781 320.238281 193.976562 C 320.128906 196.148438 319.964844 198.316406 319.75 200.480469 C 319.535156 202.644531 319.265625 204.800781 318.945312 206.953125 C 318.625 209.105469 318.25 211.246094 317.824219 213.378906 C 317.398438 215.511719 316.921875 217.632812 316.390625 219.746094 C 315.859375 221.855469 315.277344 223.949219 314.644531 226.03125 C 314.011719 228.109375 313.328125 230.175781 312.59375 232.222656 C 311.859375 234.269531 311.078125 236.296875 310.242188 238.308594 C 309.410156 240.316406 308.527344 242.304688 307.597656 244.269531 C 306.664062 246.234375 305.6875 248.179688 304.660156 250.097656 C 303.632812 252.011719 302.5625 253.90625 301.441406 255.769531 C 300.324219 257.636719 299.160156 259.472656 297.949219 261.28125 C 296.742188 263.089844 295.488281 264.867188 294.191406 266.613281 C 292.898438 268.359375 291.558594 270.074219 290.179688 271.753906 C 288.796875 273.4375 287.378906 275.082031 285.917969 276.695312 C 284.457031 278.304688 282.957031 279.882812 281.417969 281.417969 C 279.882812 282.957031 278.304688 284.457031 276.695312 285.917969 C 275.082031 287.378906 273.4375 288.796875 271.753906 290.179688 C 270.074219 291.558594 268.359375 292.898438 266.613281 294.191406 C 264.867188 295.488281 263.089844 296.742188 261.28125 297.949219 C 259.472656 299.160156 257.636719 300.324219 255.769531 301.441406 C 253.90625 302.5625 252.015625 303.632812 250.097656 304.660156 C 248.179688 305.6875 246.234375 306.664062 244.269531 307.597656 C 242.304688 308.527344 240.316406 309.410156 238.308594 310.242188 C 236.296875 311.078125 234.269531 311.859375 232.222656 312.59375 C 230.175781 313.328125 228.109375 314.011719 226.03125 314.644531 C 223.949219 315.277344 221.855469 315.859375 219.746094 316.390625 C 217.632812 316.921875 215.511719 317.398438 213.378906 317.824219 C 211.246094 318.25 209.105469 318.625 206.953125 318.945312 C 204.804688 319.265625 202.644531 319.535156 200.480469 319.75 C 198.316406 319.964844 196.148438 320.128906 193.976562 320.238281 C 191.800781 320.347656 189.628906 320.402344 187.453125 320.40625 Z M 187.453125 320.40625 " fill-opacity="1" fill-rule="nonzero"/></g><path fill="#000000" d="M 196.121094 103.609375 C 195.25 103.453125 194.378906 103.316406 193.503906 103.207031 C 192.628906 103.097656 191.75 103.007812 190.871094 102.949219 C 189.992188 102.886719 189.109375 102.847656 188.226562 102.832031 C 187.347656 102.820312 186.464844 102.828125 185.582031 102.863281 C 184.703125 102.898438 183.820312 102.953125 182.941406 103.039062 C 182.0625 103.121094 181.1875 103.226562 180.316406 103.355469 C 179.445312 103.488281 178.574219 103.640625 177.710938 103.816406 C 176.847656 103.996094 175.988281 104.199219 175.136719 104.421875 C 174.28125 104.648438 173.4375 104.894531 172.597656 105.164062 C 171.757812 105.4375 170.925781 105.730469 170.101562 106.046875 C 169.277344 106.363281 168.464844 106.703125 167.660156 107.066406 C 166.855469 107.425781 166.058594 107.808594 165.277344 108.214844 C 164.492188 108.617188 163.71875 109.042969 162.957031 109.492188 C 162.199219 109.9375 161.449219 110.40625 160.714844 110.894531 C 159.980469 111.382812 159.257812 111.890625 158.550781 112.417969 C 157.84375 112.945312 157.152344 113.492188 156.476562 114.054688 C 155.796875 114.621094 155.136719 115.203125 154.492188 115.804688 C 153.84375 116.40625 153.214844 117.027344 152.605469 117.664062 C 151.992188 118.296875 151.398438 118.949219 150.824219 119.617188 C 150.25 120.289062 149.691406 120.972656 149.152344 121.671875 C 148.613281 122.367188 148.09375 123.082031 147.597656 123.808594 C 147.097656 124.535156 146.617188 125.277344 146.160156 126.03125 C 145.699219 126.785156 145.261719 127.550781 144.84375 128.328125 C 144.429688 129.105469 144.035156 129.894531 143.660156 130.691406 C 143.285156 131.492188 142.933594 132.300781 142.605469 133.121094 C 142.273438 133.9375 141.96875 134.765625 141.683594 135.601562 C 141.398438 136.433594 141.140625 137.277344 140.902344 138.128906 C 140.664062 138.976562 140.449219 139.832031 140.257812 140.691406 C 140.066406 141.554688 139.898438 142.421875 139.753906 143.289062 C 139.609375 144.160156 139.492188 145.035156 139.394531 145.914062 C 139.296875 146.789062 139.226562 147.667969 139.179688 148.550781 C 139.132812 149.429688 139.105469 150.3125 139.109375 151.195312 L 163.28125 151.195312 C 163.28125 150.308594 163.328125 149.425781 163.425781 148.542969 C 163.519531 147.660156 163.664062 146.789062 163.859375 145.921875 C 164.050781 145.058594 164.289062 144.207031 164.574219 143.367188 C 164.863281 142.527344 165.191406 141.707031 165.570312 140.90625 C 165.945312 140.101562 166.367188 139.324219 166.828125 138.566406 C 167.289062 137.8125 167.792969 137.082031 168.335938 136.382812 C 168.878906 135.679688 169.457031 135.011719 170.074219 134.375 C 170.6875 133.738281 171.335938 133.136719 172.019531 132.570312 C 172.703125 132.003906 173.414062 131.476562 174.152344 130.988281 C 174.894531 130.5 175.65625 130.054688 176.445312 129.652344 C 177.234375 129.25 178.042969 128.890625 178.875 128.574219 C 179.703125 128.261719 180.546875 127.992188 181.402344 127.769531 C 182.261719 127.546875 183.128906 127.375 184.007812 127.246094 C 184.882812 127.121094 185.765625 127.042969 186.652344 127.011719 C 187.539062 126.984375 188.421875 127.003906 189.304688 127.070312 C 190.191406 127.140625 191.066406 127.253906 191.9375 127.417969 C 193.09375 127.636719 194.230469 127.933594 195.34375 128.316406 C 196.457031 128.699219 197.539062 129.160156 198.585938 129.699219 C 199.628906 130.242188 200.632812 130.851562 201.589844 131.539062 C 202.546875 132.226562 203.445312 132.976562 204.292969 133.796875 C 205.140625 134.613281 205.921875 135.488281 206.640625 136.421875 C 207.359375 137.355469 208.007812 138.332031 208.585938 139.359375 C 209.160156 140.386719 209.65625 141.449219 210.078125 142.550781 C 210.5 143.652344 210.835938 144.773438 211.09375 145.925781 C 211.347656 147.074219 211.519531 148.234375 211.605469 149.410156 C 211.691406 150.582031 211.695312 151.757812 211.609375 152.933594 C 211.523438 154.105469 211.351562 155.269531 211.097656 156.417969 C 210.84375 157.566406 210.503906 158.691406 210.085938 159.792969 C 209.667969 160.890625 209.171875 161.957031 208.59375 162.984375 C 208.019531 164.011719 207.375 164.992188 206.65625 165.921875 C 205.9375 166.855469 205.15625 167.734375 204.308594 168.550781 C 203.464844 169.371094 202.5625 170.125 201.605469 170.808594 C 199.636719 172.152344 197.75 173.601562 195.953125 175.167969 C 194.15625 176.734375 192.457031 178.398438 190.859375 180.167969 C 189.261719 181.933594 187.773438 183.792969 186.394531 185.738281 C 185.015625 187.683594 183.761719 189.703125 182.625 191.796875 C 181.488281 193.894531 180.480469 196.046875 179.601562 198.265625 C 178.722656 200.480469 177.980469 202.738281 177.371094 205.042969 C 176.761719 207.347656 176.289062 209.679688 175.960938 212.042969 C 175.628906 214.402344 175.4375 216.773438 175.390625 219.15625 L 175.390625 223.714844 L 199.566406 223.714844 L 199.566406 219.15625 C 199.617188 217.726562 199.757812 216.308594 199.980469 214.894531 C 200.203125 213.480469 200.507812 212.085938 200.898438 210.710938 C 201.285156 209.335938 201.753906 207.988281 202.304688 206.667969 C 202.851562 205.347656 203.476562 204.0625 204.179688 202.816406 C 204.882812 201.570312 205.65625 200.371094 206.5 199.21875 C 207.34375 198.0625 208.253906 196.964844 209.230469 195.917969 C 210.203125 194.875 211.238281 193.890625 212.332031 192.964844 C 213.421875 192.042969 214.566406 191.1875 215.761719 190.402344 C 217.675781 189.023438 219.476562 187.511719 221.167969 185.871094 C 222.863281 184.226562 224.425781 182.472656 225.863281 180.601562 C 227.296875 178.726562 228.589844 176.761719 229.738281 174.703125 C 230.882812 172.640625 231.875 170.507812 232.710938 168.300781 C 233.546875 166.097656 234.21875 163.84375 234.722656 161.539062 C 235.226562 159.234375 235.5625 156.90625 235.726562 154.554688 C 235.894531 152.199219 235.886719 149.847656 235.707031 147.496094 C 235.527344 145.144531 235.175781 142.820312 234.65625 140.519531 C 234.136719 138.21875 233.453125 135.96875 232.601562 133.765625 C 231.753906 131.566406 230.75 129.441406 229.589844 127.386719 C 228.425781 125.332031 227.125 123.375 225.675781 121.511719 C 224.230469 119.652344 222.65625 117.902344 220.953125 116.273438 C 219.25 114.640625 217.4375 113.140625 215.515625 111.773438 C 213.589844 110.40625 211.582031 109.1875 209.480469 108.117188 C 207.378906 107.042969 205.210938 106.128906 202.976562 105.375 C 200.742188 104.621094 198.464844 104.03125 196.144531 103.609375 Z M 196.121094 103.609375 " fill-opacity="1" fill-rule="nonzero"/><path fill="#000000" d="M 199.539062 259.972656 C 199.539062 260.765625 199.460938 261.550781 199.308594 262.332031 C 199.152344 263.109375 198.925781 263.863281 198.621094 264.597656 C 198.316406 265.332031 197.945312 266.027344 197.503906 266.6875 C 197.0625 267.347656 196.5625 267.957031 196 268.519531 C 195.4375 269.082031 194.828125 269.582031 194.167969 270.023438 C 193.507812 270.464844 192.8125 270.835938 192.078125 271.140625 C 191.347656 271.441406 190.589844 271.671875 189.8125 271.828125 C 189.035156 271.980469 188.246094 272.058594 187.453125 272.058594 C 186.660156 272.058594 185.875 271.980469 185.097656 271.828125 C 184.316406 271.671875 183.5625 271.441406 182.828125 271.140625 C 182.09375 270.835938 181.398438 270.464844 180.738281 270.023438 C 180.078125 269.582031 179.46875 269.082031 178.90625 268.519531 C 178.347656 267.957031 177.84375 267.347656 177.402344 266.6875 C 176.964844 266.027344 176.589844 265.332031 176.289062 264.597656 C 175.984375 263.863281 175.753906 263.109375 175.597656 262.332031 C 175.445312 261.550781 175.367188 260.765625 175.367188 259.972656 C 175.367188 259.179688 175.445312 258.394531 175.597656 257.613281 C 175.753906 256.835938 175.984375 256.082031 176.289062 255.347656 C 176.589844 254.613281 176.964844 253.917969 177.402344 253.257812 C 177.84375 252.597656 178.347656 251.988281 178.90625 251.425781 C 179.46875 250.867188 180.078125 250.363281 180.738281 249.921875 C 181.398438 249.480469 182.09375 249.109375 182.828125 248.804688 C 183.5625 248.503906 184.316406 248.273438 185.097656 248.117188 C 185.875 247.964844 186.660156 247.886719 187.453125 247.886719 C 188.246094 247.886719 189.035156 247.964844 189.8125 248.117188 C 190.589844 248.273438 191.347656 248.503906 192.078125 248.804688 C 192.8125 249.109375 193.507812 249.480469 194.167969 249.921875 C 194.828125 250.363281 195.4375 250.867188 196 251.425781 C 196.5625 251.988281 197.0625 252.597656 197.503906 253.257812 C 197.945312 253.917969 198.316406 254.613281 198.621094 255.347656 C 198.925781 256.082031 199.152344 256.835938 199.308594 257.613281 C 199.460938 258.394531 199.539062 259.179688 199.539062 259.972656 Z M 199.539062 259.972656 " fill-opacity="1" fill-rule="nonzero"/></svg>