<svg xmlns="http://www.w3.org/2000/svg" xmlns:xlink="http://www.w3.org/1999/xlink" width="500" zoomAndPan="magnify" viewBox="0 0 375 374.999991" height="500" preserveAspectRatio="xMidYMid meet" version="1.0"><defs><clipPath id="4bc425731e"><path d="M 52.835938 31.574219 L 345.125 31.574219 L 345.125 343.421875 L 52.835938 343.421875 Z M 52.835938 31.574219 " clip-rule="nonzero"/></clipPath><clipPath id="5f6fd1bccb"><path d="M 52.835938 113 L 286 113 L 286 263 L 52.835938 263 Z M 52.835938 113 " clip-rule="nonzero"/></clipPath></defs><g clip-path="url(#4bc425731e)"><path fill="#000000" d="M 54.363281 265.460938 C 71.527344 295.195312 98.023438 318.421875 129.75 331.546875 C 161.449219 344.695312 196.609375 346.996094 229.777344 338.105469 C 262.914062 329.21875 292.207031 309.648438 313.109375 282.433594 C 334.011719 255.191406 345.335938 221.828125 345.335938 187.5 C 345.335938 153.167969 334.011719 119.808594 313.109375 92.566406 C 292.207031 65.351562 262.914062 45.777344 229.777344 36.890625 C 196.609375 28.003906 161.449219 30.300781 129.75 43.453125 C 98.023438 56.574219 71.527344 79.804688 54.363281 109.539062 C 52.617188 112.582031 51.980469 116.125 52.589844 119.585938 C 53.199219 123.046875 55.027344 126.175781 57.710938 128.445312 C 60.398438 130.6875 63.832031 131.90625 67.347656 131.90625 C 69.949219 131.90625 72.496094 131.242188 74.738281 129.941406 C 77.007812 128.640625 78.863281 126.757812 80.136719 124.488281 C 93.121094 101.8125 112.75 83.679688 136.421875 72.550781 C 160.035156 61.421875 186.558594 57.820312 212.308594 62.277344 C 238.054688 66.734375 261.808594 79 280.355469 97.410156 C 298.878906 115.851562 311.308594 139.519531 315.90625 165.242188 C 320.5 190.960938 317.09375 217.484375 306.105469 241.207031 C 295.113281 264.90625 277.089844 284.675781 254.472656 297.796875 C 231.878906 310.894531 205.773438 316.734375 179.75 314.492188 C 153.695312 312.277344 128.972656 302.0625 108.957031 285.285156 C 97.386719 275.566406 87.640625 263.855469 80.136719 250.734375 C 78.367188 247.578125 75.484375 245.222656 72.054688 244.058594 C 68.648438 242.898438 64.882812 243.0625 61.589844 244.503906 C 57.683594 246.164062 54.695312 249.402344 53.335938 253.390625 C 51.953125 257.378906 52.339844 261.75 54.363281 265.460938 " fill-opacity="1" fill-rule="nonzero"/></g><g clip-path="url(#5f6fd1bccb)"><path fill="#000000" d="M 52.425781 187.5 C 52.425781 191.625 54.058594 195.582031 56.964844 198.492188 C 59.871094 201.398438 63.832031 203.058594 67.957031 203.058594 L 233.015625 203.058594 L 201.480469 234.621094 C 197.910156 237.332031 195.667969 241.457031 195.363281 245.941406 C 195.058594 250.429688 196.71875 254.800781 199.875 257.984375 C 203.058594 261.171875 207.460938 262.804688 211.917969 262.5 C 216.402344 262.195312 220.527344 259.953125 223.269531 256.378906 L 281.4375 198.519531 C 284.34375 195.582031 285.976562 191.625 285.976562 187.5 C 285.976562 183.375 284.34375 179.414062 281.4375 176.480469 L 223.269531 118.398438 C 220.335938 115.488281 216.375 113.828125 212.25 113.828125 C 207.378906 113.855469 202.8125 116.125 199.875 120.003906 C 196.941406 123.851562 195.972656 128.863281 197.246094 133.570312 C 197.964844 136.253906 199.433594 138.664062 201.480469 140.574219 L 233.015625 171.941406 L 67.957031 171.941406 C 63.832031 171.941406 59.871094 173.574219 56.9375 176.480469 C 54.058594 179.414062 52.425781 183.375 52.425781 187.5 " fill-opacity="1" fill-rule="nonzero"/></g></svg>