<svg xmlns="http://www.w3.org/2000/svg" xmlns:xlink="http://www.w3.org/1999/xlink" width="500" zoomAndPan="magnify" viewBox="0 0 375 374.999991" height="500" preserveAspectRatio="xMidYMid meet" version="1.0"><defs><clipPath id="6734290217"><path d="M 13.015625 45 L 344 45 L 344 330 L 13.015625 330 Z M 13.015625 45 " clip-rule="nonzero"/></clipPath></defs><path fill="#000000" d="M 257 226.640625 C 260.085938 228.402344 264.019531 227.34375 265.785156 224.261719 C 267.546875 221.175781 266.488281 217.269531 263.433594 215.503906 L 207.527344 183.21875 L 207.527344 112.273438 C 207.527344 108.71875 204.648438 105.839844 201.09375 105.839844 C 197.539062 105.839844 194.660156 108.71875 194.660156 112.273438 L 194.660156 190.652344 L 257 226.640625 " fill-opacity="1" fill-rule="nonzero"/><g clip-path="url(#6734290217)"><path fill="#000000" d="M 129.558594 187.800781 L 86.34375 187.800781 C 86.34375 123.992188 138.078125 72.257812 201.886719 72.257812 C 265.695312 72.257812 317.429688 123.992188 317.429688 187.800781 C 317.429688 251.609375 265.695312 303.34375 201.886719 303.34375 C 189.109375 303.34375 176.417969 301.230469 164.3125 297.058594 C 157.410156 294.679688 149.859375 298.351562 147.480469 305.285156 C 145.101562 312.1875 148.800781 319.738281 155.707031 322.117188 C 229.882812 347.617188 310.703125 308.164062 336.203125 233.984375 C 361.703125 159.804688 322.277344 79.015625 248.097656 53.488281 C 173.917969 27.988281 93.101562 67.441406 67.601562 141.621094 C 62.488281 156.484375 59.875 172.085938 59.875 187.800781 L 16.660156 187.800781 C 14.632812 187.800781 13.015625 189.417969 13.015625 191.445312 C 13.015625 192.355469 13.371094 193.238281 13.988281 193.914062 L 70.449219 254.84375 C 71.800781 256.3125 74.125 256.398438 75.59375 255.019531 C 75.652344 254.960938 75.710938 254.902344 75.769531 254.84375 L 132.230469 193.914062 C 133.613281 192.445312 133.523438 190.125 132.054688 188.773438 C 131.378906 188.15625 130.5 187.800781 129.558594 187.800781 " fill-opacity="1" fill-rule="nonzero"/></g></svg>