<svg xmlns="http://www.w3.org/2000/svg" xmlns:xlink="http://www.w3.org/1999/xlink" width="500" zoomAndPan="magnify" viewBox="0 0 375 374.999991" height="500" preserveAspectRatio="xMidYMid meet" version="1.0"><defs><clipPath id="81e65cda7d"><path d="M 30.402344 30.402344 L 344.652344 30.402344 L 344.652344 344.652344 L 30.402344 344.652344 Z M 30.402344 30.402344 " clip-rule="nonzero"/></clipPath><clipPath id="b3f4902b74"><path d="M 31.222656 31.222656 L 343.773438 31.222656 L 343.773438 343.773438 L 31.222656 343.773438 Z M 31.222656 31.222656 " clip-rule="nonzero"/></clipPath><clipPath id="0f49a6cec9"><path d="M 187.496094 31.222656 C 101.1875 31.222656 31.222656 101.1875 31.222656 187.496094 C 31.222656 273.804688 101.1875 343.773438 187.496094 343.773438 C 273.804688 343.773438 343.773438 273.804688 343.773438 187.496094 C 343.773438 101.1875 273.804688 31.222656 187.496094 31.222656 Z M 187.496094 31.222656 " clip-rule="nonzero"/></clipPath></defs><g clip-path="url(#81e65cda7d)"><path fill="#000000" d="M 187.621094 30.402344 C 230.882812 30.402344 270.28125 48.078125 298.628906 76.425781 C 326.980469 104.960938 344.652344 144.175781 344.652344 187.621094 C 344.652344 230.882812 326.980469 270.28125 298.628906 298.628906 C 270.28125 326.980469 230.882812 344.652344 187.621094 344.652344 C 144.175781 344.652344 104.960938 326.980469 76.425781 298.628906 C 48.078125 270.28125 30.402344 230.882812 30.402344 187.621094 C 30.402344 144.175781 48.078125 104.960938 76.425781 76.425781 C 104.960938 48.078125 144.175781 30.402344 187.621094 30.402344 Z M 288.320312 86.921875 C 262.546875 61.148438 226.832031 45.132812 187.621094 45.132812 C 148.222656 45.132812 112.695312 61.148438 86.921875 86.921875 C 61.148438 112.695312 45.132812 148.222656 45.132812 187.621094 C 45.132812 226.832031 61.148438 262.546875 86.921875 288.320312 C 112.695312 313.910156 148.222656 329.925781 187.621094 329.925781 C 226.832031 329.925781 262.546875 313.910156 288.320312 288.320312 C 313.910156 262.546875 329.925781 226.832031 329.925781 187.621094 C 329.925781 148.222656 313.910156 112.695312 288.320312 86.921875 Z M 288.320312 86.921875 " fill-opacity="1" fill-rule="nonzero"/></g><path fill="#000000" d="M 114.351562 101.832031 C 118.21875 97.964844 122.453125 94.46875 126.871094 91.15625 C 131.289062 87.839844 135.890625 84.894531 140.859375 82.320312 L 140.675781 82.132812 C 144.359375 80.292969 148.777344 81.582031 150.800781 85.265625 C 152.089844 87.65625 151.90625 90.601562 150.433594 92.628906 C 140.675781 111.222656 137.363281 132.390625 140.308594 152.644531 C 143.253906 172.710938 152.457031 191.855469 167.921875 207.320312 C 183.203125 222.597656 202.53125 231.804688 222.414062 234.75 C 243.035156 237.878906 264.203125 234.382812 282.980469 224.441406 C 286.480469 222.414062 290.898438 223.886719 292.921875 227.386719 C 294.210938 229.960938 294.027344 232.722656 292.554688 234.933594 C 289.976562 239.535156 287.214844 243.953125 284.085938 248.371094 C 280.773438 252.789062 277.089844 257.023438 273.226562 260.890625 C 251.316406 282.796875 222.597656 293.84375 193.695312 293.84375 C 164.976562 293.84375 136.257812 282.796875 114.351562 260.890625 C 92.257812 238.984375 81.398438 210.082031 81.398438 181.363281 C 81.398438 152.644531 92.257812 123.925781 114.351562 101.832031 Z M 114.351562 101.832031 " fill-opacity="1" fill-rule="nonzero"/><g clip-path="url(#b3f4902b74)"><g clip-path="url(#0f49a6cec9)"><path stroke-linecap="butt" transform="matrix(0.75, 0, 0, 0.75, 31.221591, 31.221561)" fill="none" stroke-linejoin="miter" d="M 208.366018 0.00146099 C 93.287885 0.00146099 0.00142075 93.287925 0.00142075 208.366058 C 0.00142075 323.444191 93.287885 416.735863 208.366018 416.735863 C 323.44415 416.735863 416.735823 323.444191 416.735823 208.366058 C 416.735823 93.287925 323.44415 0.00146099 208.366018 0.00146099 Z M 208.366018 0.00146099 " stroke="#000000" stroke-width="50" stroke-opacity="1" stroke-miterlimit="4"/></g></g></svg>