<svg xmlns="http://www.w3.org/2000/svg" xmlns:xlink="http://www.w3.org/1999/xlink" width="500" zoomAndPan="magnify" viewBox="0 0 375 374.999991" height="500" preserveAspectRatio="xMidYMid meet" version="1.0"><defs><clipPath id="b84731dcaa"><path d="M 151 315 L 224 315 L 224 344.652344 L 151 344.652344 Z M 151 315 " clip-rule="nonzero"/></clipPath><clipPath id="fdc9a8ea10"><path d="M 44.683594 30.402344 L 330.433594 30.402344 L 330.433594 302 L 44.683594 302 Z M 44.683594 30.402344 " clip-rule="nonzero"/></clipPath></defs><g clip-path="url(#b84731dcaa)"><path fill="#000000" d="M 223.398438 317.242188 C 222.699219 316.222656 221.296875 315.523438 220.40625 315.652344 L 154.773438 316.03125 C 154.773438 316.03125 152.421875 316.667969 151.785156 317.6875 C 151.148438 318.703125 151.023438 319.976562 151.53125 321.054688 C 157.761719 335.367188 171.945312 344.585938 187.527344 344.585938 C 203.363281 344.585938 217.546875 335.175781 223.714844 320.609375 C 224.160156 319.464844 224.03125 318.195312 223.398438 317.242188 Z M 223.398438 317.242188 " fill-opacity="1" fill-rule="nonzero"/></g><g clip-path="url(#fdc9a8ea10)"><path fill="#000000" d="M 327.761719 282.007812 L 287.503906 248.425781 L 287.503906 158.945312 C 287.503906 113.597656 257.105469 75.25 215.636719 63.039062 C 215.828125 61.703125 216.082031 60.367188 216.082031 58.96875 C 216.082031 43.195312 203.300781 30.410156 187.527344 30.410156 C 171.753906 30.410156 158.972656 43.195312 158.972656 58.96875 C 158.972656 60.367188 159.226562 61.703125 159.417969 63.039062 C 117.949219 75.25 87.550781 113.535156 87.550781 158.945312 L 87.550781 248.425781 L 47.230469 282.007812 C 45.574219 283.34375 44.683594 285.378906 44.683594 287.476562 L 44.683594 294.597656 C 44.683594 298.542969 47.863281 301.722656 51.808594 301.722656 L 323.183594 301.722656 C 327.125 301.722656 330.304688 298.542969 330.304688 294.597656 L 330.304688 287.476562 C 330.304688 285.378906 329.351562 283.34375 327.761719 282.007812 Z M 173.34375 60.113281 C 173.34375 59.730469 173.21875 59.347656 173.21875 58.96875 C 173.21875 51.082031 179.640625 44.65625 187.527344 44.65625 C 195.414062 44.65625 201.773438 51.082031 201.773438 58.96875 C 201.773438 59.347656 201.710938 59.730469 201.644531 60.113281 C 197.003906 59.476562 192.296875 58.96875 187.464844 58.96875 C 182.628906 58.96875 177.988281 59.410156 173.34375 60.113281 Z M 173.34375 60.113281 " fill-opacity="1" fill-rule="nonzero"/></g></svg>